<svg xmlns="http://www.w3.org/2000/svg" viewBox="0 0 200 200">
  <defs>
    <linearGradient id="shield" x1="0%" y1="0%" x2="100%" y2="100%">
      <stop offset="0%" style="stop-color:#2563eb"/>
      <stop offset="100%" style="stop-color:#1d4ed8"/>
    </linearGradient>
    <linearGradient id="docker" x1="0%" y1="0%" x2="100%" y2="100%">
      <stop offset="0%" style="stop-color:#0ea5e9"/>
      <stop offset="100%" style="stop-color:#0284c7"/>
    </linearGradient>
  </defs>
  
  <!-- Shield shape -->
  <path d="M100 10 L180 50 L180 110 C180 150 140 180 100 195 C60 180 20 150 20 110 L20 50 Z" 
        fill="url(#shield)" stroke="#1e40af" stroke-width="3"/>
  
  <!-- Docker whale body -->
  <ellipse cx="100" cy="110" rx="50" ry="25" fill="url(#docker)"/>
  
  <!-- Docker containers (stacked rectangles) -->
  <rect x="55" y="75" width="18" height="12" rx="2" fill="#fff" opacity="0.9"/>
  <rect x="76" y="75" width="18" height="12" rx="2" fill="#fff" opacity="0.9"/>
  <rect x="97" y="75" width="18" height="12" rx="2" fill="#fff" opacity="0.9"/>
  <rect x="118" y="75" width="18" height="12" rx="2" fill="#fff" opacity="0.9"/>
  
  <rect x="66" y="60" width="18" height="12" rx="2" fill="#fff" opacity="0.85"/>
  <rect x="87" y="60" width="18" height="12" rx="2" fill="#fff" opacity="0.85"/>
  <rect x="108" y="60" width="18" height="12" rx="2" fill="#fff" opacity="0.85"/>
  
  <rect x="76" y="45" width="18" height="12" rx="2" fill="#fff" opacity="0.8"/>
  <rect x="97" y="45" width="18" height="12" rx="2" fill="#fff" opacity="0.8"/>
  
  <!-- Whale tail -->
  <path d="M45 105 Q35 95 40 80 Q50 90 50 100" fill="url(#docker)"/>
  
  <!-- Eye -->
  <circle cx="140" cy="105" r="4" fill="#fff"/>
  <circle cx="141" cy="104" r="2" fill="#1e3a5f"/>
  
  <!-- Checkmark (warden/protection symbol) -->
  <path d="M80 135 L95 150 L130 115" 
        stroke="#10b981" stroke-width="8" stroke-linecap="round" stroke-linejoin="round" fill="none"/>
</svg>
